<mxfile host="65bd71144e" modified="2020-11-08T18:03:11.522Z" agent="5.0 (Macintosh; Intel Mac OS X 10_15_7) AppleWebKit/537.36 (KHTML, like Gecko) Code/1.51.0 Chrome/83.0.4103.122 Electron/9.3.3 Safari/537.36" version="13.6.5" etag="NJd0Ss0-auh5W5dfEd-W">
    <diagram id="ZZ_ysURF43E7lO6kVmC1" name="Page-1">
        <mxGraphModel dx="633" dy="291" grid="1" gridSize="10" guides="1" tooltips="1" connect="1" arrows="1" fold="1" page="1" pageScale="1" pageWidth="827" pageHeight="1169" math="0" shadow="0">
            <root>
                <mxCell id="0"/>
                <mxCell id="1" parent="0"/>
                <mxCell id="2" value="AzureSentinelContext" style="html=1;" vertex="1" parent="1">
                    <mxGeometry x="80" y="190" width="190" height="50" as="geometry"/>
                </mxCell>
                <mxCell id="3" value="AzureSentinelIncident" style="html=1;" vertex="1" parent="1">
                    <mxGeometry x="330" y="190" width="190" height="50" as="geometry"/>
                </mxCell>
                <mxCell id="7" style="edgeStyle=orthogonalEdgeStyle;rounded=0;orthogonalLoop=1;jettySize=auto;html=1;" edge="1" parent="1" source="6" target="2">
                    <mxGeometry relative="1" as="geometry"/>
                </mxCell>
                <mxCell id="6" value="AzureSentinelAuthenticationContext" style="html=1;" vertex="1" parent="1">
                    <mxGeometry x="80" y="110" width="190" height="50" as="geometry"/>
                </mxCell>
            </root>
        </mxGraphModel>
    </diagram>
</mxfile>